<mxfile host="cad10279-8856-4448-9ccb-e69b37c7089a" modified="2020-09-29T15:38:59.708Z" agent="5.0 (Windows NT 10.0; Win64; x64) AppleWebKit/537.36 (KHTML, like Gecko) Code/1.49.2 Chrome/83.0.4103.122 Electron/9.2.1 Safari/537.36" etag="c4cCFZO1L4R7UlGhehbs" version="13.1.3">
    <diagram id="6hGFLwfOUW9BJ-s0fimq" name="Page-1">
        <mxGraphModel dx="523" dy="325" grid="1" gridSize="10" guides="1" tooltips="1" connect="1" arrows="1" fold="1" page="1" pageScale="1" pageWidth="827" pageHeight="1169" math="0" shadow="0">
            <root>
                <mxCell id="0"/>
                <mxCell id="1" parent="0"/>
                <mxCell id="3" value="&amp;nbsp; Navegador" style="rounded=0;whiteSpace=wrap;html=1;fontSize=15;align=left;verticalAlign=top;" vertex="1" parent="1">
                    <mxGeometry x="90" y="110" width="370" height="330" as="geometry"/>
                </mxCell>
                <mxCell id="4" value="JavaScript&lt;br style=&quot;font-size: 15px;&quot;&gt;(V8, Spider Monkey, Chakra Core)" style="rounded=0;whiteSpace=wrap;html=1;fontSize=15;spacing=2;spacingTop=0;horizontal=1;fillColor=#fff2cc;strokeColor=#d6b656;labelBackgroundColor=none;fontColor=#080808;" vertex="1" parent="1">
                    <mxGeometry x="110" y="170" width="180" height="240" as="geometry"/>
                </mxCell>
                <mxCell id="5" value="Dom API" style="rounded=1;whiteSpace=wrap;html=1;labelBackgroundColor=none;fillColor=#dae8fc;fontSize=15;align=center;strokeColor=#6c8ebf;fontColor=#0A0A0A;" vertex="1" parent="1">
                    <mxGeometry x="310" y="170" width="120" height="40" as="geometry"/>
                </mxCell>
                <mxCell id="6" value="localStorage" style="rounded=1;whiteSpace=wrap;html=1;labelBackgroundColor=none;fillColor=#dae8fc;fontSize=15;align=center;strokeColor=#6c8ebf;fontColor=#0A0A0A;" vertex="1" parent="1">
                    <mxGeometry x="310" y="220" width="120" height="40" as="geometry"/>
                </mxCell>
                <mxCell id="7" value="History" style="rounded=1;whiteSpace=wrap;html=1;labelBackgroundColor=none;fillColor=#dae8fc;fontSize=15;align=center;strokeColor=#6c8ebf;fontColor=#0A0A0A;" vertex="1" parent="1">
                    <mxGeometry x="310" y="270" width="120" height="40" as="geometry"/>
                </mxCell>
                <mxCell id="8" value="location" style="rounded=1;whiteSpace=wrap;html=1;labelBackgroundColor=none;fillColor=#dae8fc;fontSize=15;align=center;strokeColor=#6c8ebf;fontColor=#0A0A0A;" vertex="1" parent="1">
                    <mxGeometry x="310" y="320" width="120" height="40" as="geometry"/>
                </mxCell>
                <mxCell id="9" value="fetch" style="rounded=1;whiteSpace=wrap;html=1;labelBackgroundColor=none;fillColor=#dae8fc;fontSize=15;align=center;strokeColor=#6c8ebf;fontColor=#0A0A0A;" vertex="1" parent="1">
                    <mxGeometry x="310" y="370" width="120" height="40" as="geometry"/>
                </mxCell>
                <mxCell id="10" value="Internet" style="ellipse;shape=cloud;whiteSpace=wrap;html=1;labelBackgroundColor=none;fillColor=#DBDBDB;gradientColor=none;fontSize=15;fontColor=#0A0A0A;align=center;" vertex="1" parent="1">
                    <mxGeometry x="530" y="220" width="120" height="80" as="geometry"/>
                </mxCell>
                <mxCell id="11" value="Servidores&lt;br&gt;(Seu, github, twitter, viacep, deezer)" style="whiteSpace=wrap;html=1;aspect=fixed;labelBackgroundColor=none;fillColor=#DBDBDB;gradientColor=none;fontSize=15;fontColor=#0A0A0A;align=center;" vertex="1" parent="1">
                    <mxGeometry x="730" y="210" width="110" height="110" as="geometry"/>
                </mxCell>
                <mxCell id="12" value="" style="shape=flexArrow;endArrow=classic;html=1;fontSize=15;fontColor=#0A0A0A;" edge="1" parent="1" target="10">
                    <mxGeometry width="50" height="50" relative="1" as="geometry">
                        <mxPoint x="470" y="270" as="sourcePoint"/>
                        <mxPoint x="540" y="240" as="targetPoint"/>
                    </mxGeometry>
                </mxCell>
                <mxCell id="13" value="" style="shape=flexArrow;endArrow=classic;html=1;fontSize=15;fontColor=#0A0A0A;" edge="1" parent="1">
                    <mxGeometry width="50" height="50" relative="1" as="geometry">
                        <mxPoint x="660" y="270" as="sourcePoint"/>
                        <mxPoint x="720.4633273971799" y="264.9613893835684" as="targetPoint"/>
                    </mxGeometry>
                </mxCell>
                <mxCell id="14" value="" style="shape=flexArrow;endArrow=classic;html=1;fontSize=15;fontColor=#0A0A0A;" edge="1" parent="1">
                    <mxGeometry width="50" height="50" relative="1" as="geometry">
                        <mxPoint x="710" y="230" as="sourcePoint"/>
                        <mxPoint x="650.0033273971799" y="244.96138938356842" as="targetPoint"/>
                    </mxGeometry>
                </mxCell>
                <mxCell id="15" value="" style="shape=flexArrow;endArrow=classic;html=1;fontSize=15;fontColor=#0A0A0A;" edge="1" parent="1">
                    <mxGeometry width="50" height="50" relative="1" as="geometry">
                        <mxPoint x="530" y="230" as="sourcePoint"/>
                        <mxPoint x="470.0033273971799" y="244.96138938356842" as="targetPoint"/>
                    </mxGeometry>
                </mxCell>
            </root>
        </mxGraphModel>
    </diagram>
</mxfile>